HIERARCHY
ROOT Hips
{
	OFFSET 0.00000 0.00000 0.00000
	CHANNELS 6 Xposition Yposition Zposition Zrotation Yrotation Xrotation 
	JOINT LHipJoint
	{
		OFFSET 0 0 0
		CHANNELS 3 Zrotation Yrotation Xrotation
		JOINT LeftHip
		{
			OFFSET 1.38280 -1.96574 0.54427
			CHANNELS 3 Zrotation Yrotation Xrotation
			JOINT LeftKnee
			{
				OFFSET 2.72096 -7.47578 0.00000
				CHANNELS 3 Zrotation Yrotation Xrotation
				JOINT LeftAnkle
				{
					OFFSET 2.73041 -7.50176 0.00000
					CHANNELS 3 Zrotation Yrotation Xrotation
					JOINT LeftToe
					{
						OFFSET 0.16150 -0.44371 2.18031
						CHANNELS 3 Zrotation Yrotation Xrotation
						End Site
						{
							OFFSET 0.00000 -0.00000 1.12127
						}
					}
				}
			}
		}
	}
	JOINT RHipJoint
	{
		OFFSET 0 0 0
		CHANNELS 3 Zrotation Yrotation Xrotation
		JOINT RightHip
		{
			OFFSET -1.57224 -1.96575 0.54427
			CHANNELS 3 Zrotation Yrotation Xrotation
			JOINT RightKnee
			{
				OFFSET -2.95935 -8.13076 0.00000
				CHANNELS 3 Zrotation Yrotation Xrotation
				JOINT RightAnkle
				{
					OFFSET -2.52345 -6.93311 0.00000
					CHANNELS 3 Zrotation Yrotation Xrotation
					JOINT RightToe
					{
						OFFSET -0.04475 -0.10171 1.86688
						CHANNELS 3 Zrotation Yrotation Xrotation
						End Site
						{
							OFFSET -0.00000 -0.00000 0.95157
						}
					}
				}
			}
		}
	}
	JOINT lowerback
	{
		OFFSET 0 0 0
		CHANNELS 3 Zrotation Yrotation Xrotation
		JOINT Chest
		{
			OFFSET 0.00669 2.07367 0.09104
			CHANNELS 3 Zrotation Yrotation Xrotation
			JOINT Chest2
			{
				OFFSET -0.00664 2.06198 -0.04732
				CHANNELS 3 Zrotation Yrotation Xrotation
				JOINT lowerneck
				{
					OFFSET 0 0 0
					CHANNELS 3 Zrotation Yrotation Xrotation
					JOINT Neck
					{
						OFFSET -0.00021 1.49948 0.16345
						CHANNELS 3 Zrotation Yrotation Xrotation
						JOINT Head
						{
							OFFSET 0.06080 1.50567 -0.26702
							CHANNELS 3 Zrotation Yrotation Xrotation
							End Site
							{
								OFFSET 0.01726 1.56470 -0.11854
							}
						}
					}
				}
				JOINT LeftCollar
				{
					OFFSET 0 0 0
					CHANNELS 3 Zrotation Yrotation Xrotation
					JOINT LeftShoulder
					{
						OFFSET 3.14993 0.82932 -0.22488
CHANNELS 3 Zrotation Xrotation Yrotation
						JOINT LeftElbow
						{
OFFSET 0 -5.682360 -0.000000
CHANNELS 3 Zrotation Xrotation Yrotation
							JOINT LeftWrist
							{
OFFSET 0 -3.171120 0.000000
CHANNELS 3 Zrotation Xrotation Yrotation
								JOINT lhand
								{
									OFFSET 0 0 0
CHANNELS 3 Zrotation Xrotation Yrotation
									JOINT LFingers
									{
OFFSET 0 -0.632690 0.000000
CHANNELS 3 Zrotation Xrotation Yrotation
										End Site
										{
OFFSET 0 -0.510090 0.000000
										}
									}
								}
								JOINT LThumb
								{
OFFSET 0 0.000000 0.000000
CHANNELS 3 Zrotation Xrotation Yrotation
									End Site
									{
OFFSET 0 -0.517880 0.517880
									}
								}
							}
						}
					}
				}
				JOINT RightCollar
				{
					OFFSET 0 0 0
					CHANNELS 3 Zrotation Yrotation Xrotation
					JOINT RightShoulder
					{
						OFFSET -3.10571 0.91279 -0.33334
CHANNELS 3 Zrotation Xrotation Yrotation
						JOINT RightElbow
						{
OFFSET 0 -5.871200 -0.000000
CHANNELS 3 Zrotation Xrotation Yrotation
							JOINT RightWrist
							{
OFFSET 0 -3.375890 0.000000
CHANNELS 3 Zrotation Xrotation Yrotation
								JOINT rhand
								{
									OFFSET 0 0 0
CHANNELS 3 Zrotation Xrotation Yrotation
									JOINT RFingers
									{
OFFSET 0 -0.603260 0.000000
CHANNELS 3 Zrotation Xrotation Yrotation
										End Site
										{
OFFSET 0 -0.486360 0.000000
										}
									}
								}
								JOINT RThumb
								{
OFFSET 0 0.000000 0.000000
CHANNELS 3 Zrotation Xrotation Yrotation
									End Site
									{
OFFSET 0 -0.493790 0.493790
									}
								}
							}
						}
					}
				}
			}
		}
	}
}
MOTION
Frames: 4
Frame Time: 0.008333333333333333
31.396637 18.359819 -4.490032 1256.124958 -91.092602 -172.363536 0.000000 0.000000 0.000000 -12.973035 -10.262607 -12.269667 1.946259 8.753288 25.026583 1.438496 7.181537 -26.264271 0.599396 -4.956128 -13.783480 0.000000 0.000000 0.000000 18.959243 10.335545 -12.518596 -2.450029 -9.746462 28.159561 0.129684 10.506301 -5.075579 -2.727758 -10.240780 29.759950 0.106761 0.719191 -9.197258 1.733103 0.817231 1.806109 1.885547 0.360711 7.044861 -7.208898 -3.936748 -17.347582 2.782305 -4.521654 24.624092 1.535825 -2.502864 11.078967 0.000000 0.000000 0.000000 41.475261 -57.969653 -43.623174 47.372870 -51.879021 24.091541 0.943169 -35.702525 -35.892382 0.000000 0.000000 0.000000 -7.125000 0.000000 0.000000 -38.639701 61.572924 16.969478 0.000000 0.000000 0.000000 -41.839846 -61.377688 34.983928 -50.922642 -53.360861 -26.912793 -15.352786 -13.178372 -27.803604 0.000000 0.000000 0.000000 7.125000 0.000000 0.000000 8.854919 1.605990 8.708784
31.316867 18.332878 -4.706306 1264.747913 -91.850274 -180.509317 0.000000 0.000000 0.000000 -12.442470 -11.445038 -12.104494 1.889338 8.631717 24.649803 1.452794 7.501940 -26.578444 0.627575 -5.068241 -14.103558 0.000000 0.000000 0.000000 19.427051 9.965272 -13.392486 -2.595519 -10.009474 29.007522 0.123047 10.045433 -4.757286 -3.143459 -10.923678 32.023066 0.771574 1.139934 -9.146638 1.769145 1.283635 2.509030 1.633939 0.609969 7.766714 -7.880392 -4.494728 -20.546756 2.671744 -4.669768 23.998354 1.538354 -2.566057 11.493766 0.000000 0.000000 0.000000 14.596738 -41.430019 -57.669243 39.951787 -48.040633 18.403616 6.678373 -30.445696 -37.277443 0.000000 0.000000 0.000000 -7.125000 0.000000 0.000000 -34.622156 64.164967 17.051947 0.000000 0.000000 0.000000 -14.666498 -41.017054 48.680803 -46.365093 -51.419445 -23.301218 -16.158779 -13.358237 -23.399179 0.000000 0.000000 0.000000 7.125000 0.000000 0.000000 8.049215 5.927978 7.248602
31.141246 18.313149 -4.987627 1271.897663 -92.227802 -186.901449 0.000000 0.000000 0.000000 -11.758880 -12.302423 -12.157281 1.904386 8.664064 24.750022 1.561542 7.577146 -27.404342 0.656271 -5.181118 -14.425893 0.000000 0.000000 0.000000 20.039148 9.454839 -13.973627 -2.643409 -10.094041 29.281926 0.155765 10.504633 -4.539369 -3.195073 -11.004373 32.294745 1.302698 1.006543 -8.705920 1.942424 1.031247 2.637341 1.470512 0.505710 7.662254 -7.758302 -4.080931 -21.390975 2.288365 -3.894565 23.452496 1.493325 -2.228803 11.391599 0.000000 0.000000 0.000000 9.692721 -23.708318 -55.509318 33.509352 -43.717691 13.772855 9.977193 -28.366453 -38.261420 0.000000 0.000000 0.000000 -7.125000 0.000000 0.000000 -32.495024 65.885989 17.171105 0.000000 0.000000 0.000000 -9.236676 -22.903637 45.178562 -38.134460 -46.924512 -17.063844 -16.196878 -11.645276 -22.599567 0.000000 0.000000 0.000000 7.125000 0.000000 0.000000 7.976916 6.733877 7.056942
30.943500 18.278974 -5.286532 1290.474658 -91.302575 -204.580050 0.000000 0.000000 0.000000 -11.072074 -11.363692 -13.260522 2.070879 9.012130 25.833418 1.688576 7.621267 -28.309210 0.677970 -5.264733 -14.665184 0.000000 0.000000 0.000000 20.736696 9.011920 -15.055060 -2.775937 -10.323232 30.029928 0.271601 11.359953 -2.967196 -3.295143 -11.158181 32.815182 1.696281 0.555236 -7.888076 2.219554 0.375705 2.766712 1.431315 0.193324 7.339347 -7.102972 -3.061390 -21.102860 1.204292 -2.382216 22.303869 1.234296 -1.602071 10.799032 0.000000 0.000000 0.000000 7.697317 -6.780754 -44.104003 30.757432 -41.533617 11.908785 13.089890 -24.640952 -38.422110 0.000000 0.000000 0.000000 -7.125000 0.000000 0.000000 -29.370118 66.928458 16.080374 0.000000 0.000000 0.000000 -6.370311 -10.023993 36.618044 -33.209727 -43.490598 -13.566208 -22.486812 -14.660618 -20.676369 0.000000 0.000000 0.000000 7.125000 0.000000 0.000000 3.855370 7.803753 3.304204
